:version 1.10
:name ASF
:units
  mass 1
  length 1
  angle deg
:documentation
  ASF file generated by Kaydara
:root
  axis xyz
  order  tx ty tz rx ry rz
  position 0 0 0
  orientation 0 0 0
:bonedata
  begin
    id 1
    name RightUpLegDummy
    direction -1 2.30186e-007 8.31532e-007
    length 4.04083
    axis 0 0 0 xyz
  end
  begin
    id 2
    name RightUpLeg
    direction -0.000919234 -0.999985 0.00544864
    length 17.4221
    axis -3.80308 -0.00076134 -0.0523649 xyz
    dof rx ry rz
  end
  begin
    id 3
    name RightLeg
    direction -0.000919271 -0.999984 -0.00555045
    length 17.1239
    axis 4.00314 0.0181274 -0.183583 xyz
    dof rx ry rz
  end
  begin
    id 4
    name RightFoot
    direction -2.57843e-005 -4.04509e-007 1
    length 6.72091
    axis 8.18909e-005 -0.122003 -0.403008 xyz
    dof rx ry rz
  end
  begin
    id 5
    name RightToes
    direction 0.00116825 -0.014069 0.9999
    length 3.85082
    axis 0.000514414 0.540638 -0.356797 xyz
    dof rx ry rz
  end
  begin
    id 6
    name SpineDummy
    direction 0.0168869 0.966876 -0.254689
    length 6.99894
    axis 0 0 0 xyz
  end
  begin
    id 7
    name Spine
    direction -0.0132008 0.999903 0.00446247
    length 11.1999
    axis -0.00148109 0.00725429 0.756411 xyz
    dof rx ry rz
  end
  begin
    id 8
    name Spine1
    direction 0 0 0
    length 0
    axis -0.000934958 0.0245693 1.46543 xyz
    dof rx ry rz
  end
  begin
    id 9
    name HEadDummy
    direction -0.0255732 0.999672 0.00128215
    length 3.43865
    axis -0.000934958 0.0245693 1.46543 xyz
  end
  begin
    id 10
    name HEad
    direction -0.0472656 0.980052 0.19304
    length 5.12695
    axis -0.000934954 0.0245693 1.46543 xyz
    dof rx ry rz
  end
  begin
    id 11
    name LeftShoulder1Dummy
    direction 0.953098 0.301717 -0.023914
    length 3.68488
    axis -0.000934958 0.0245693 1.46543 xyz
  end
  begin
    id 12
    name LeftShoulder1
    direction 0.962466 0.271167 0.0112566
    length 3.13809
    axis -0.000934958 0.0245693 1.46543 xyz
    dof rx ry rz
  end
  begin
    id 13
    name LeftArm
    direction 0.999943 0.00455037 -0.00961766
    length 11.3419
    axis -23.1648 0.685459 1.22814 xyz
    dof rx ry rz
  end
  begin
    id 14
    name LeftForeArm
    direction 0.999332 0.0131969 0.0340885
    length 8.70632
    axis -9.90633 0.618216 0.0826942 xyz
    dof rx ry rz
  end
  begin
    id 15
    name LeftHand
    direction 0.994373 -0.0366703 0.0993905
    length 5.32135
    axis 0.00675269 0.680415 0.445699 xyz
    dof rx ry rz
  end
  begin
    id 16
    name RightShoulderDummy
    direction -0.967298 0.252589 -0.0230903
    length 3.68488
    axis -0.000934958 0.0245693 1.46543 xyz
  end
  begin
    id 17
    name RightShoulder
    direction -0.975062 0.221602 0.0120823
    length 3.13809
    axis 0.216257 0.0246515 1.45863 xyz
    dof rx ry rz
  end
  begin
    id 18
    name RightArm
    direction -0.99886 -0.00851186 -0.0469687
    length 10.3947
    axis -23.196 0.23503 -0.532632 xyz
    dof rx ry rz
  end
  begin
    id 19
    name RightForeArm
    direction -0.99909 0.00114866 0.0426317
    length 8.68355
    axis -9.91764 -0.134943 0.610517 xyz
    dof rx ry rz
  end
  begin
    id 20
    name RightHand
    direction -0.992888 -0.0489538 0.10852
    length 5.28593
    axis -0.00275396 -0.197403 0.246414 xyz
    dof rx ry rz
  end
  begin
    id 21
    name LeftUpLegDummy
    direction 1 -2.30186e-007 -8.31532e-007
    length 4.04083
    axis 0 0 0 xyz
  end
  begin
    id 22
    name LeftUpLeg
    direction -0.000920097 -1 2.79241e-006
    length 17.4221
    axis -3.48782 0.00143434 -0.0532288 xyz
    dof rx ry rz
  end
  begin
    id 23
    name LeftLeg
    direction -0.000920097 -1 2.7912e-006
    length 17.1239
    axis 3.68162 -0.00806512 -0.0529896 xyz
    dof rx ry rz
  end
  begin
    id 24
    name LeftFoot
    direction -2.57845e-005 -3.987e-007 1
    length 6.72091
    axis 3.02372e-005 -0.00147829 -0.214229 xyz
    dof rx ry rz
  end
  begin
    id 25
    name LeftToes
    direction 0.00813577 -0.00488255 0.999955
    length 3.85048
    axis 3.89895e-005 -0.0014783 -0.214229 xyz
    dof rx ry rz
  end
:hierarchy
  begin
    root RightUpLegDummy SpineDummy LeftUpLegDummy
    RightUpLegDummy RightUpLeg
    RightUpLeg RightLeg
    RightLeg RightFoot
    RightFoot RightToes
    SpineDummy Spine
    Spine Spine1
    Spine1 HEadDummy LeftShoulder1Dummy RightShoulderDummy
    HEadDummy HEad
    LeftShoulder1Dummy LeftShoulder1
    LeftShoulder1 LeftArm
    LeftArm LeftForeArm
    LeftForeArm LeftHand
    RightShoulderDummy RightShoulder
    RightShoulder RightArm
    RightArm RightForeArm
    RightForeArm RightHand
    LeftUpLegDummy LeftUpLeg
    LeftUpLeg LeftLeg
    LeftLeg LeftFoot
    LeftFoot LeftToes
  end

:SAMPLES-PER-SECOND 30
:FULLY-SPECIFIED
:DEGREES
49
root  -43.3508 34.6933 23.0178 -169.717 62.1214 -178.225
RightUpLeg  -6.37186 -18.7512 -3.4931
RightLeg  2.81745 -0.934712 0.0148609
RightFoot  9.46031 0.0383453 0.00516995
RightToes  -33.344 -0.165202 -0.272345
Spine  -2.0226 -0.0730583 0.123048
Spine1  -4.10418 -0.0745201 0.885462
HEad  -67.2202 -0.46878 3.48647
LeftShoulder1  -1.94126e-019 -3.10601e-018 -2.51263e-017
LeftArm  -8.75956 23.0899 -80.9372
LeftForeArm  34.4023 -18.447 -2.88014
LeftHand  -0.455104 -2.15689 7.17158
RightShoulder  -4.96962e-017 0 -2.36833e-017
RightArm  -24.1365 -21.8123 78.2074
RightForeArm  58.3798 14.1936 1.19879
RightHand  -0.39438 -0.974638 -10.1949
LeftUpLeg  -5.58544 7.63173 5.25792
LeftLeg  3.65328 13.258 -0.00340245
LeftFoot  7.84547 -0.126127 1.97351
LeftToes  -29.2607 2.32378e-006 -5.43956e-008
50
root  -43.3538 34.6934 23.0171 -169.721 62.1453 -178.21
RightUpLeg  -6.36599 -18.7956 -3.49388
RightLeg  2.82069 -0.861029 0.0107545
RightFoot  9.47691 0.0375347 0.0167539
RightToes  -33.3664 -0.165202 -0.272345
Spine  -2.03201 -0.0514472 0.113788
Spine1  -4.12303 -0.0311949 0.868217
HEad  -67.1187 -0.411254 3.45416
LeftShoulder1  -1.94126e-019 -3.10601e-018 -2.51263e-017
LeftArm  -8.81122 23.152 -80.868
LeftForeArm  34.3889 -18.2075 -2.84831
LeftHand  -0.45607 -2.13885 7.16223
RightShoulder  -4.96962e-017 0 -2.36833e-017
RightArm  -24.1294 -21.7969 78.1603
RightForeArm  58.4055 14.1779 1.2027
RightHand  -0.39561 -0.960767 -10.1777
LeftUpLeg  -5.56431 7.67083 5.26408
LeftLeg  3.64618 13.2434 0.00113359
LeftFoot  7.82994 -0.125403 1.96766
LeftToes  -29.2589 2.32378e-006 -5.43956e-008
51
root  -43.3557 34.6935 23.021 -169.731 62.1689 -178.205
RightUpLeg  -6.36282 -18.8065 -3.49196
RightLeg  2.81805 -0.832773 0.0133049
RightFoot  9.47751 0.0372222 0.021219
RightToes  -33.3573 -0.165202 -0.272345
Spine  -2.03301 -0.0361854 0.105433
Spine1  -4.12811 -0.000788268 0.853284
HEad  -67.2953 -0.457904 3.40594
LeftShoulder1  -1.94126e-019 -3.10601e-018 -2.51263e-017
LeftArm  -8.84319 23.1968 -80.8078
LeftForeArm  34.436 -18.0335 -2.82408
LeftHand  -0.456443 -2.10893 7.17976
RightShoulder  -4.96962e-017 0 -2.36833e-017
RightArm  -24.1142 -21.7932 78.1514
RightForeArm  58.4324 14.1792 1.20218
RightHand  -0.394862 -0.976208 -10.2179
LeftUpLeg  -5.54319 7.69817 5.26969
LeftLeg  3.63373 13.2415 0.00233718
LeftFoot  7.83096 -0.125045 1.96765
LeftToes  -29.2756 2.32378e-006 -5.43956e-008
52
root  -43.3594 34.6936 23.0273 -169.753 62.1902 -178.205
RightUpLeg  -6.3614 -18.773 -3.48869
RightLeg  2.83871 -0.834103 0.0130282
RightFoot  9.46765 0.0372132 0.0213476
RightToes  -33.3461 -0.165202 -0.272345
Spine  -2.03029 -0.022039 0.0981297
Spine1  -4.12697 0.0278983 0.840293
HEad  -67.4288 -0.403299 3.3305
LeftShoulder1  -1.94126e-019 -3.10601e-018 -2.51263e-017
LeftArm  -8.92282 23.2768 -80.735
LeftForeArm  34.4239 -17.6502 -2.77422
LeftHand  -0.45592 -2.0883 7.24611
RightShoulder  -4.96962e-017 0 -2.36833e-017
RightArm  -24.0624 -21.7853 78.1318
RightForeArm  58.5364 14.1953 1.19689
RightHand  -0.393005 -1.01997 -10.2827
LeftUpLeg  -5.53154 7.72955 5.27771
LeftLeg  3.64322 13.2205 0.0034583
LeftFoot  7.82679 -0.124847 1.97026
LeftToes  -29.3032 2.32378e-006 -5.43956e-008
53
root  -43.3637 34.6937 23.0322 -169.774 62.191 -178.207
RightUpLeg  -6.36034 -18.7328 -3.49098
RightLeg  2.85831 -0.875924 0.0133514
RightFoot  9.46077 0.0376625 0.0149279
RightToes  -33.3061 -0.165202 -0.272345
Spine  -2.02655 -0.0146126 0.0941741
Spine1  -4.12096 0.0431147 0.833374
HEad  -67.5345 -0.373564 3.32685
LeftShoulder1  -1.94126e-019 -3.10601e-018 -2.51263e-017
LeftArm  -8.99929 23.3123 -80.6959
LeftForeArm  34.4697 -17.3667 -2.73779
LeftHand  -0.456092 -2.09323 7.28703
RightShoulder  -4.96962e-017 0 -2.36833e-017
RightArm  -24.0465 -21.7832 78.1192
RightForeArm  58.5345 14.2002 1.19394
RightHand  -0.391218 -0.996793 -10.3363
LeftUpLeg  -5.52719 7.69879 5.28101
LeftLeg  3.65431 13.258 -0.00680885
LeftFoot  7.82749 -0.124412 1.9693
LeftToes  -29.329 2.32378e-006 -5.43956e-008
54
root  -43.371 34.6937 23.0412 -169.823 62.2081 -178.221
RightUpLeg  -6.34385 -18.5753 -3.50244
RightLeg  2.86571 -1.00563 0.0150995
RightFoot  9.48019 0.039127 -0.0060002
RightToes  -33.3486 -0.165202 -0.272345
Spine  -2.02449 0.00131585 0.0825007
Spine1  -4.10856 0.0752572 0.814631
HEad  -67.6467 -0.353373 3.33635
LeftShoulder1  -1.94126e-019 -3.10601e-018 -2.51263e-017
LeftArm  -9.16536 23.3486 -80.6461
LeftForeArm  34.6087 -16.8712 -2.67562
LeftHand  -0.455676 -2.03374 7.31934
RightShoulder  -4.96962e-017 0 -2.36833e-017
RightArm  -24.0423 -21.7695 78.1151
RightForeArm  58.495 14.1891 1.19474
RightHand  -0.391328 -1.00754 -10.3087
LeftUpLeg  -5.49093 7.76651 5.28559
LeftLeg  3.63401 13.1772 -0.0113975
LeftFoot  7.8159 -0.123114 1.95501
LeftToes  -29.4058 2.32378e-006 -5.43956e-008
55
root  -43.3773 34.6936 23.0449 -169.849 62.2161 -178.216
RightUpLeg  -6.31318 -18.4513 -3.53721
RightLeg  2.89211 -0.961354 0.0140263
RightFoot  9.43412 0.0385652 0.00202788
RightToes  -33.1636 -0.165202 -0.272345
Spine  -2.02575 0.0155042 0.0768098
Spine1  -4.1114 0.104418 0.807237
HEad  -67.6764 -0.377359 3.33767
LeftShoulder1  -1.94126e-019 -3.10601e-018 -2.51263e-017
LeftArm  -9.39192 23.4003 -80.6176
LeftForeArm  34.7048 -16.4977 -2.6272
LeftHand  -0.456122 -2.06174 7.34825
RightShoulder  -4.96962e-017 0 -2.36833e-017
RightArm  -24.0824 -21.7737 78.1092
RightForeArm  58.5307 14.152 1.20188
RightHand  -0.389184 -1.02929 -10.3006
LeftUpLeg  -5.46553 7.75702 5.28601
LeftLeg  3.63088 13.1858 -0.0121168
LeftFoot  7.78257 -0.122293 1.94821
LeftToes  -29.3601 2.32378e-006 -5.43956e-008
56
root  -43.3792 34.6934 23.0501 -169.902 62.2448 -178.243
RightUpLeg  -6.30905 -18.3711 -3.55171
RightLeg  2.91804 -1.02408 0.0144381
RightFoot  9.42163 0.0392363 -0.00756148
RightToes  -33.1246 -0.165202 -0.272345
Spine  -2.03322 0.0261684 0.0695289
Spine1  -4.12666 0.126513 0.796279
HEad  -67.5605 -0.332142 3.40654
LeftShoulder1  -1.94126e-019 -3.10601e-018 -2.51263e-017
LeftArm  -9.7861 23.4911 -80.61
LeftForeArm  34.6203 -16.1956 -2.58865
LeftHand  -0.452703 -1.94411 7.49548
RightShoulder  -4.96962e-017 0 -2.36833e-017
RightArm  -24.165 -21.7751 78.122
RightForeArm  58.5502 14.1113 1.21
RightHand  -0.388605 -1.07399 -10.2697
LeftUpLeg  -5.43923 7.79378 5.28967
LeftLeg  3.63114 13.1706 -0.0149092
LeftFoot  7.8082 -0.121708 1.94514
LeftToes  -29.4508 2.32378e-006 -5.43956e-008
